<svg width="47" height="34" viewBox="0 0 47 34" fill="none" xmlns="http://www.w3.org/2000/svg">
<path d="M46.6 3.9C46.6 2.1 45.5 0.499996 42.8 0.499996C39.1 0.499996 34.6 2.3 31.6 5.3C27.9 9 25.7 14.4 25.7 21.7V22.1C25.7 29 29 33.3 34.6 33.3C39.6 33.3 42.9 29.8 42.9 25.1V24.9C42.9 20.6 39.4 17.6 35.9 16.7C35.7 11.9 38.5 8.4 43.6 7.2C45.3 6.8 46.6 5.69999 46.6 3.9ZM21.2 3.9C21.2 2.1 20.1 0.499996 17.4 0.499996C13.7 0.499996 9.2 2.3 6.2 5.3C2.5 9 0.3 14.4 0.3 21.7V22.1C0.3 29 3.6 33.3 9.2 33.3C14.2 33.3 17.5 29.8 17.5 25.1V24.9C17.5 20.6 14 17.6 10.5 16.7C10.3 11.9 13.1 8.4 18.2 7.2C19.9 6.8 21.2 5.69999 21.2 3.9Z" fill="#00ACB4"/>
</svg>
