<svg width="47" height="34" viewBox="0 0 47 34" fill="none" xmlns="http://www.w3.org/2000/svg">
<path d="M0.4 29.8C0.4 31.6 1.5 33.2 4.2 33.2C7.9 33.2 12.4 31.4 15.4 28.4C19.1 24.7 21.3 19.3 21.3 12V11.6C21.3 4.7 18 0.399997 12.4 0.399997C7.4 0.399997 4.1 3.9 4.1 8.6V8.8C4.1 13.1 7.6 16.1 11.1 17C11.3 21.8 8.5 25.3 3.4 26.5C1.7 26.9 0.4 28 0.4 29.8ZM25.8 29.8C25.8 31.6 26.9 33.2 29.6 33.2C33.3 33.2 37.8 31.4 40.8 28.4C44.5 24.7 46.7 19.3 46.7 12V11.6C46.7 4.7 43.4 0.399997 37.8 0.399997C32.8 0.399997 29.5 3.9 29.5 8.6V8.8C29.5 13.1 33 16.1 36.5 17C36.7 21.8 33.9 25.3 28.8 26.5C27.1 26.9 25.8 28 25.8 29.8Z" fill="#00ACB4"/>
</svg>
