<svg width="10" height="19" viewBox="0 0 10 19" fill="none" xmlns="http://www.w3.org/2000/svg">
<path fill-rule="evenodd" clip-rule="evenodd" d="M7.93205 3.65911C8.46585 3.63892 8.99484 3.65406 9.52865 3.65406C9.59405 3.65406 9.65945 3.65406 9.7489 3.65406V0.750133C9.46517 0.721871 9.16797 0.678468 8.87077 0.663327C8.32543 0.638093 7.77912 0.609832 7.23281 0.622954C6.39892 0.641122 5.61024 0.854098 4.92158 1.3719C4.13194 1.96843 3.69817 2.8062 3.53274 3.79437C3.46445 4.20114 3.44713 4.62507 3.43655 5.03891C3.42116 5.69095 3.43463 6.34098 3.43463 6.99303V7.23729H0.788697V10.4794H3.41924V18.6279H6.63457V10.4925H9.25838C9.39303 9.41347 9.52288 8.34658 9.66041 7.23528C9.44978 7.23528 9.26127 7.23427 9.07083 7.23528C8.32543 7.2383 6.61341 7.23528 6.61341 7.23528C6.61341 7.23528 6.61918 5.62837 6.63841 4.9309C6.66438 3.97706 7.20396 3.68636 7.93205 3.65911Z" fill="white"/>
</svg>
