<svg width="20" height="18" viewBox="0 0 20 18" fill="none" xmlns="http://www.w3.org/2000/svg">
<path fill-rule="evenodd" clip-rule="evenodd" d="M5.95415 13.6078C3.93435 13.5341 2.67245 12.012 2.33774 10.7756C2.89944 10.8886 3.45344 10.8664 4.0036 10.7241C4.01899 10.7211 4.03149 10.71 4.06034 10.6969C2.96484 10.4294 2.12133 9.81571 1.53559 8.82554C1.14702 8.16745 0.960427 7.44778 0.966198 6.65746C1.51154 6.96229 2.0819 7.13387 2.69553 7.15103C1.87415 6.52928 1.32111 5.71675 1.09604 4.67611C0.872903 3.63951 1.01717 2.65439 1.51347 1.72277C3.61791 4.32284 6.28116 5.75107 9.52919 5.98524C9.50707 5.82273 9.48207 5.68243 9.46764 5.5381C9.35896 4.57821 9.54074 3.68393 10.0361 2.87039C10.6536 1.85297 11.5384 1.22011 12.6714 1.02632C13.9776 0.80224 15.1192 1.19286 16.0753 2.16385C16.1368 2.22946 16.1907 2.24964 16.2811 2.22946C17.0794 2.04576 17.8325 1.74396 18.5414 1.316C18.5587 1.30591 18.576 1.29682 18.5943 1.28875C18.5981 1.28774 18.6039 1.28774 18.6202 1.28774C18.3134 2.23551 17.7517 2.96729 16.9544 3.50729C17.7094 3.41948 18.4279 3.21054 19.1204 2.89563C19.1271 2.90269 19.13 2.90976 19.1367 2.9148C18.9867 3.11869 18.8424 3.32763 18.6895 3.52647C18.2778 4.0594 17.8036 4.52875 17.2766 4.93552C17.2323 4.96983 17.2093 5.00213 17.2131 5.0637C17.2333 5.66931 17.2112 6.27391 17.141 6.87347C16.9909 8.14121 16.6543 9.3504 16.1388 10.5061C15.6059 11.6992 14.9124 12.7751 14.0382 13.7219C12.556 15.3278 10.7728 16.3644 8.6953 16.8468C7.9826 17.0114 7.26028 17.0931 6.53027 17.1163C4.28925 17.1839 2.21751 16.5995 0.310244 15.3641C0.286199 15.349 0.261193 15.3318 0.218873 15.3025C1.57503 15.4549 2.86577 15.2733 4.10651 14.7403C4.76535 14.4547 5.3761 14.0822 5.95415 13.6078Z" fill="white"/>
</svg>
